<svg width="111" height="40" viewBox="0 0 111 40" fill="none" xmlns="http://www.w3.org/2000/svg">
<path d="M43.7648 39.6918C42.6294 39.6918 41.709 38.7713 41.709 37.6359V13.6638C41.709 12.5284 42.6294 11.608 43.7648 11.608C44.9002 11.608 45.8206 12.5284 45.8206 13.6638V37.6359C45.8206 38.7713 44.9002 39.6918 43.7648 39.6918ZM43.9484 5.40279C43.1638 5.40279 42.5041 5.13532 41.9691 4.60039C41.4342 4.06546 41.1667 3.42355 41.1667 2.67465C41.1667 1.92575 41.4342 1.30166 41.9691 0.802393C42.5041 0.267464 43.1638 0 43.9484 0C44.7329 0 45.3927 0.249634 45.9276 0.748901C46.4625 1.24817 46.73 1.87225 46.73 2.62116C46.73 3.40572 46.4625 4.06546 45.9276 4.60039C45.4283 5.13532 44.7686 5.40279 43.9484 5.40279Z" fill="url(#paint0_linear_33_523)"/>
<path d="M31.6985 39.9592C29.3092 39.9592 27.2229 39.5134 25.4398 38.6219C23.6567 37.7303 22.2659 36.393 21.2674 34.6099C20.3045 32.8268 19.8231 30.5979 19.8231 27.9233V13.507C19.8231 12.4582 20.6733 11.608 21.7221 11.608C22.7709 11.608 23.6211 12.4582 23.6211 13.507V27.4953C23.6211 30.491 24.3521 32.7555 25.8143 34.289C27.3121 35.7868 29.3983 36.5357 32.073 36.5357C34.0344 36.5357 35.7283 36.1434 37.1548 35.3588C38.6169 34.5386 39.7224 33.3617 40.4713 31.8283C41.2559 30.2948 41.6482 28.4582 41.6482 26.3185L41.7808 14.8633H42.1909V38.0641H41.8087V31.9888L43.3711 33.5403C42.4795 35.6087 41.0887 37.2313 39.1986 38.4081C37.3442 39.5493 34.1949 39.9592 31.6985 39.9592Z" fill="url(#paint1_linear_33_523)"/>
<path d="M21.7716 39.6917C20.7671 39.6917 19.9529 38.8774 19.9529 37.873V33.4865L19.7924 32.4702V22.0925C19.7924 19.7032 19.1148 17.8666 17.7597 16.5828C16.4402 15.2989 14.4609 14.657 11.8219 14.657C10.0032 14.657 8.27357 14.9602 6.63312 15.5664C5.67566 15.9203 4.80323 16.3409 4.01585 16.8284C3.15851 17.3592 1.98246 17.1815 1.46127 16.3183C1.05057 15.6381 1.18824 14.7514 1.84361 14.3022C3.02738 13.4906 4.37425 12.8422 5.88422 12.3568C7.88129 11.6793 9.98535 11.3405 12.1964 11.3405C15.8339 11.3405 18.6334 12.2498 20.5948 14.0686C22.5918 15.8517 23.5904 18.5798 23.5904 22.253V37.873C23.5904 38.8774 22.7761 39.6917 21.7716 39.6917ZM10.2706 39.9592C8.16659 39.9592 6.33 39.6204 4.76087 38.9428C3.22741 38.2296 2.05056 37.2667 1.23034 36.0542C0.410112 34.806 0 33.3795 0 31.7748C0 30.3126 0.338788 28.9931 1.01637 27.8163C1.7296 26.6038 2.87079 25.6409 4.43991 24.9277C6.0447 24.1788 8.18442 23.8043 10.8591 23.8043H20.5413V26.6394H10.9661C8.25574 26.6394 6.36566 27.1209 5.2958 28.0838C4.2616 29.0466 3.7445 30.2413 3.7445 31.6678C3.7445 33.2726 4.36859 34.5564 5.61676 35.5193C6.86493 36.4821 8.61236 36.9636 10.8591 36.9636C12.9988 36.9636 14.8354 36.4821 16.3688 35.5193C17.938 34.5207 19.0791 33.0943 19.7924 31.2398L20.6483 33.861C19.935 35.7154 18.6869 37.1954 16.9038 38.3009C15.1563 39.4064 12.9453 39.9592 10.2706 39.9592Z" fill="url(#paint2_linear_33_523)"/>
<path d="M105.341 39.8563V31.3766H102.006V29.7956H110.543V31.3766H107.209V39.8563H105.341Z" fill="#4F5B96"/>
<path d="M95.6362 39.8563V29.7956H97.5046V38.2754H102.765V39.8563H95.6362Z" fill="#4F5B96"/>
<path d="M83.4481 39.8563L87.9754 29.7956H89.8151L94.3568 39.8563H92.4022L88.5072 30.7873H89.2546L85.374 39.8563H83.4481ZM85.5321 37.528L86.0352 36.062H91.4679L91.971 37.528H85.5321Z" fill="#4F5B96"/>
<path d="M78.9509 40C78.1652 40 77.413 39.8899 76.6944 39.6695C75.9758 39.4395 75.4057 39.1473 74.9841 38.7928L75.6308 37.3411C76.0333 37.6573 76.5315 37.9208 77.1256 38.1316C77.7196 38.3424 78.3281 38.4478 78.9509 38.4478C79.4779 38.4478 79.9042 38.3903 80.23 38.2754C80.5558 38.1604 80.7953 38.0071 80.9486 37.8154C81.1019 37.6142 81.1786 37.3891 81.1786 37.1399C81.1786 36.8333 81.0684 36.589 80.848 36.4069C80.6276 36.2153 80.3402 36.0668 79.9857 35.9614C79.6407 35.8464 79.2527 35.741 78.8215 35.6452C78.3999 35.5494 77.9735 35.4392 77.5424 35.3146C77.1208 35.1805 76.7327 35.0128 76.3782 34.8116C76.0333 34.6008 75.7506 34.3229 75.5302 33.978C75.3098 33.6331 75.1997 33.1923 75.1997 32.6557C75.1997 32.1096 75.3434 31.6113 75.6308 31.161C75.9279 30.7011 76.3734 30.337 76.9675 30.0687C77.5711 29.7908 78.3328 29.6519 79.2527 29.6519C79.8563 29.6519 80.4552 29.7285 81.0492 29.8818C81.6433 30.0352 82.1607 30.2555 82.6015 30.543L82.0122 31.9946C81.5619 31.7263 81.0971 31.5299 80.6181 31.4053C80.139 31.2712 79.6791 31.2041 79.2383 31.2041C78.7209 31.2041 78.2993 31.2664 77.9735 31.391C77.6573 31.5155 77.4226 31.6784 77.2693 31.8796C77.1256 32.0808 77.0537 32.3108 77.0537 32.5695C77.0537 32.8761 77.1591 33.1252 77.3699 33.3169C77.5903 33.4989 77.8729 33.6426 78.2179 33.748C78.5724 33.8534 78.9652 33.9588 79.3964 34.0642C79.8276 34.16 80.254 34.2702 80.6756 34.3948C81.1067 34.5194 81.4948 34.6822 81.8397 34.8835C82.1942 35.0847 82.4769 35.3577 82.6877 35.7027C82.9081 36.0476 83.0183 36.4836 83.0183 37.0106C83.0183 37.5471 82.8698 38.0454 82.5727 38.5053C82.2853 38.9556 81.8397 39.3197 81.2361 39.5976C80.6324 39.8659 79.8707 40 78.9509 40Z" fill="#4F5B96"/>
<path d="M65.9399 40C65.1542 40 64.402 39.8899 63.6834 39.6695C62.9648 39.4395 62.3947 39.1473 61.9731 38.7928L62.6198 37.3411C63.0223 37.6573 63.5205 37.9208 64.1146 38.1316C64.7086 38.3424 65.3171 38.4478 65.9399 38.4478C66.4669 38.4478 66.8932 38.3903 67.219 38.2754C67.5448 38.1604 67.7843 38.0071 67.9376 37.8154C68.091 37.6142 68.1676 37.3891 68.1676 37.1399C68.1676 36.8333 68.0574 36.589 67.837 36.4069C67.6167 36.2153 67.3292 36.0668 66.9747 35.9614C66.6298 35.8464 66.2417 35.741 65.8105 35.6452C65.3889 35.5494 64.9626 35.4392 64.5314 35.3146C64.1098 35.1805 63.7217 35.0128 63.3672 34.8116C63.0223 34.6008 62.7396 34.3229 62.5192 33.978C62.2989 33.6331 62.1887 33.1923 62.1887 32.6557C62.1887 32.1096 62.3324 31.6113 62.6198 31.161C62.9169 30.7011 63.3624 30.337 63.9565 30.0687C64.5601 29.7908 65.3219 29.6519 66.2417 29.6519C66.8453 29.6519 67.4442 29.7285 68.0383 29.8818C68.6323 30.0352 69.1497 30.2555 69.5905 30.543L69.0012 31.9946C68.5509 31.7263 68.0862 31.5299 67.6071 31.4053C67.128 31.2712 66.6681 31.2041 66.2273 31.2041C65.7099 31.2041 65.2883 31.2664 64.9626 31.391C64.6464 31.5155 64.4116 31.6784 64.2583 31.8796C64.1146 32.0808 64.0427 32.3108 64.0427 32.5695C64.0427 32.8761 64.1481 33.1252 64.3589 33.3169C64.5793 33.4989 64.8619 33.6426 65.2069 33.748C65.5614 33.8534 65.9542 33.9588 66.3854 34.0642C66.8166 34.16 67.243 34.2702 67.6646 34.3948C68.0957 34.5194 68.4838 34.6822 68.8287 34.8835C69.1833 35.0847 69.4659 35.3577 69.6767 35.7027C69.8971 36.0476 70.0073 36.4836 70.0073 37.0106C70.0073 37.5471 69.8588 38.0454 69.5617 38.5053C69.2743 38.9556 68.8287 39.3197 68.2251 39.5976C67.6215 39.8659 66.8597 40 65.9399 40Z" fill="#4F5B96"/>
<path d="M50.6329 39.8563L55.1602 29.7956H56.9999L61.5416 39.8563H59.5869L55.692 30.7873H56.4393L52.5588 39.8563H50.6329ZM52.7169 37.528L53.2199 36.062H58.6527L59.1557 37.528H52.7169Z" fill="#4F5B96"/>
<path d="M104.443 16.1155H109.956V17.8105H104.443V16.1155ZM104.602 20.868H110.859V22.5947H102.542V11.5056H110.637V13.2323H104.602V20.868Z" fill="#4F5B96"/>
<path d="M93.0589 22.5947V11.5056H95.1183V20.8521H100.916V22.5947H93.0589Z" fill="#4F5B96"/>
<path d="M81.7192 22.5947V11.5056H86.2816C87.2637 11.5056 88.1034 11.664 88.8004 11.9808C89.508 12.2977 90.0519 12.7518 90.4321 13.3432C90.8123 13.9346 91.0024 14.6369 91.0024 15.4501C91.0024 16.2634 90.8123 16.9657 90.4321 17.5571C90.0519 18.1485 89.508 18.6026 88.8004 18.9195C88.1034 19.2363 87.2637 19.3947 86.2816 19.3947H82.8598L83.7786 18.4284V22.5947H81.7192ZM83.7786 18.6502L82.8598 17.6521H86.1865C87.0948 17.6521 87.776 17.462 88.2301 17.0818C88.6948 16.6911 88.9271 16.1472 88.9271 15.4501C88.9271 14.7426 88.6948 14.1987 88.2301 13.8185C87.776 13.4383 87.0948 13.2482 86.1865 13.2482H82.8598L83.7786 12.2343V18.6502Z" fill="#4F5B96"/>
<path d="M66.5892 22.5947V11.5056H68.2842L73.1318 19.6007H72.2446L77.013 11.5056H78.708L78.7239 22.5947H76.7753L76.7595 14.563H77.1714L73.1159 21.3274H72.1971L68.0783 14.563H68.5535V22.5947H66.5892Z" fill="#4F5B96"/>
<path d="M61.5304 22.5947V11.5056H63.5898V22.5947H61.5304Z" fill="#4F5B96"/>
<path d="M55.0052 22.7531C54.1392 22.7531 53.3101 22.6317 52.518 22.3888C51.7259 22.1353 51.0976 21.8132 50.6329 21.4224L51.3457 19.8224C51.7893 20.1709 52.3385 20.4614 52.9933 20.6937C53.6481 20.9261 54.3187 21.0422 55.0052 21.0422C55.586 21.0422 56.056 20.9789 56.4151 20.8521C56.7741 20.7254 57.0382 20.5564 57.2071 20.3452C57.3761 20.1234 57.4606 19.8752 57.4606 19.6006C57.4606 19.2627 57.3392 18.9934 57.0963 18.7927C56.8533 18.5815 56.5365 18.4178 56.1458 18.3016C55.7656 18.1749 55.3378 18.0587 54.8626 17.9531C54.3979 17.8475 53.9279 17.7261 53.4527 17.5888C52.988 17.4409 52.5603 17.2561 52.1695 17.0343C51.7893 16.802 51.4778 16.4957 51.2349 16.1155C50.992 15.7353 50.8705 15.2495 50.8705 14.6581C50.8705 14.0561 51.0289 13.5069 51.3457 13.0105C51.6731 12.5036 52.1642 12.1023 52.819 11.8066C53.4844 11.5003 54.324 11.3472 55.3378 11.3472C56.0032 11.3472 56.6632 11.4317 57.318 11.6006C57.9728 11.7696 58.5431 12.0125 59.0289 12.3293L58.3794 13.9294C57.8831 13.6336 57.3708 13.4171 56.8428 13.2798C56.3147 13.132 55.8078 13.0581 55.322 13.0581C54.7517 13.0581 54.287 13.1267 53.9279 13.264C53.5794 13.4013 53.3207 13.5808 53.1517 13.8026C52.9933 14.0244 52.9141 14.2779 52.9141 14.563C52.9141 14.901 53.0302 15.1756 53.2626 15.3868C53.5055 15.5874 53.817 15.7459 54.1972 15.862C54.588 15.9782 55.021 16.0944 55.4963 16.2105C55.9715 16.3162 56.4415 16.4376 56.9062 16.5749C57.3814 16.7122 57.8091 16.8917 58.1893 17.1135C58.5801 17.3353 58.8916 17.6363 59.124 18.0165C59.3669 18.3967 59.4883 18.8772 59.4883 19.4581C59.4883 20.0495 59.3246 20.5987 58.9972 21.1056C58.6804 21.602 58.1893 22.0033 57.524 22.3096C56.8586 22.6053 56.019 22.7531 55.0052 22.7531Z" fill="#4F5B96"/>
<defs>
<linearGradient id="paint0_linear_33_523" x1="49.1539" y1="26.0226" x2="-5.20453" y2="26.6009" gradientUnits="userSpaceOnUse">
<stop stop-color="#4F5B96"/>
<stop offset="1" stop-color="#F05365"/>
</linearGradient>
<linearGradient id="paint1_linear_33_523" x1="49.1539" y1="26.0226" x2="-5.20453" y2="26.6009" gradientUnits="userSpaceOnUse">
<stop stop-color="#4F5B96"/>
<stop offset="1" stop-color="#F05365"/>
</linearGradient>
<linearGradient id="paint2_linear_33_523" x1="49.1539" y1="26.0226" x2="-5.20453" y2="26.6009" gradientUnits="userSpaceOnUse">
<stop stop-color="#4F5B96"/>
<stop offset="1" stop-color="#F05365"/>
</linearGradient>
</defs>
</svg>
